<svg xmlns="http://www.w3.org/2000/svg" width="46.33" height="31.192" viewBox="0 0 46.33 31.192">
  <path id="Контур_34" data-name="Контур 34" d="M56.33,187.232V185.6a2.983,2.983,0,0,0-.884-2.123l-8.8-8.7a2.986,2.986,0,0,0-2.1-.865H40.11v-1.664A2.24,2.24,0,0,0,37.869,170H12.241A2.24,2.24,0,0,0,10,172.241v14.986H56.33ZM42.743,176.841a.349.349,0,0,1,.35-.35h1.622a.368.368,0,0,1,.246.1l6.888,6.576a.35.35,0,0,1-.236.605H43.1a.349.349,0,0,1-.35-.35l0-6.581ZM56.33,188.47v4.959a2.24,2.24,0,0,1-2.241,2.241H51.7a6.144,6.144,0,0,0-12.159,0H27.393a6.138,6.138,0,0,0-12.15,0h-3A2.24,2.24,0,0,1,10,193.43V188.47Zm-10.717,3.437a4.642,4.642,0,1,0,4.642,4.642A4.641,4.641,0,0,0,45.612,191.907Zm0,6.968a2.321,2.321,0,1,1,2.321-2.321A2.322,2.322,0,0,1,45.612,198.876Zm-24.3-6.968a4.642,4.642,0,1,0,4.642,4.642A4.641,4.641,0,0,0,21.313,191.907Zm0,6.968a2.321,2.321,0,1,1,2.321-2.321A2.322,2.322,0,0,1,21.313,198.876Z" transform="translate(-10 -170)"/>
</svg>
